<?xml version="1.0"?>
<svg fill="#000000" xmlns="http://www.w3.org/2000/svg" viewBox="0 0 50 50" width="50px" height="50px">
    <path d="M42,19h-9V1c0-0.385-0.221-0.735-0.567-0.902c-0.346-0.165-0.757-0.12-1.059,0.122 c-0.143,0.114-14.325,11.495-18.568,14.707C7.573,18.888,7,20.763,7,23.821L7,43c0,2.757,2.243,5,5,5h30c0.552,0,1-0.448,1-1V20 C43,19.448,42.552,19,42,19z M22.936,19.271c1.077-1.202,2.651-1.626,3.514-0.948c0.864,0.679,0.691,2.204-0.386,3.406 c-1.077,1.202-2.65,1.626-3.514,0.947C21.686,21.997,21.859,20.473,22.936,19.271z M14,43l18.534-11.706 C32.824,31.111,33,30.792,33,30.449V21h5v14.25c0,0.444-0.293,0.836-0.72,0.96L14,43z" />
</svg>